<svg xmlns="http://www.w3.org/2000/svg" viewBox="0 0 128 128" role="img" aria-label="EIPSI icon minimal style">
  <rect x="2" y="2" width="124" height="124" rx="14" fill="#D9E9FA"></rect>
  <rect x="16" y="20" width="96" height="68" rx="12" fill="#0A61A8"></rect>
  <path d="M76 26h36c6 0 10 4 10 8v24c0 4-4 8-10 8H92l-6 10-2-10H76c-6 0-10-4-10-8V34c0-4 4-8 10-8z" fill="#9ED0F5" stroke="#FFF" stroke-width="2"></path>
  <circle cx="48" cy="72" r="18" fill="#FFF"></circle>
  <path d="M16 116c0-16 14-28 32-28s32 12 32 28v2H16v-2z" fill="#FFF"></path>
</svg>
